<svg width="200" height="116" viewBox="0 0 200 116" fill="none" xmlns="http://www.w3.org/2000/svg">
<path d="M33.1855 55.2371C30.5978 55.7471 28.4593 56.6077 26.7698 57.8196C25.0801 59.0309 24.0505 60.3544 23.6809 61.789C23.3113 63.2236 23.6149 64.6424 24.5917 66.045C25.5685 67.4482 27.4034 68.5798 30.0961 69.4411C30.7298 69.4411 31.1255 69.6004 31.2845 69.9191C31.4424 70.2377 31.2045 70.3971 30.5718 70.3971C27.9842 70.0784 25.7138 69.4248 23.7602 68.4368C20.1169 66.619 18.1105 64.2761 17.7409 61.4063C17.5297 59.9718 17.7541 58.5849 18.4141 57.2456C19.0741 55.9064 19.9849 54.6788 21.1465 53.5629C22.5721 52.3836 24.2617 51.3631 26.2154 50.5024C26.3209 50.4385 26.6246 50.2954 27.1261 50.0721C27.6278 49.8488 28.1161 49.6418 28.5914 49.4505C29.0666 49.2592 29.7792 48.9562 30.7298 48.5416L27.7994 40.0288C25.2121 41.3361 22.6513 42.7785 20.117 44.3567C17.5825 45.935 15.2857 47.6013 13.2264 49.3545C11.1673 51.1084 9.51726 52.9654 8.27641 54.9263C7.03565 56.8871 6.41527 58.9512 6.41527 61.1197C6.41527 63.1282 7.11481 65.0172 8.51408 66.7868C9.91326 68.5563 11.7745 70.0947 14.0977 71.4013C16.4209 72.7086 19.1005 73.737 22.1365 74.4866C25.1725 75.2355 28.2481 75.6103 31.3634 75.6103C31.4694 75.6103 31.9571 75.5783 32.8287 75.5144C33.7002 75.451 34.6237 75.3713 35.6002 75.2754C36.5777 75.18 37.4753 75.0762 38.2938 74.9645C39.1114 74.8529 39.5212 74.7334 39.5212 74.606L39.0454 73.2668C36.9865 66.9859 35.0325 60.976 33.1855 55.2371V55.2371ZM35.957 55.0458L42.4517 74.0321C46.2007 73.1709 48.7344 71.6965 50.0547 69.6083C51.375 67.5201 51.6779 65.3999 50.9653 63.2477C50.2526 61.0955 48.5765 59.1902 45.9359 57.5323C43.2962 55.8744 39.97 55.0458 35.957 55.0458V55.0458ZM27.641 29.4599C29.2775 28.9493 30.7957 28.1847 32.195 27.1641C33.5943 26.1441 34.8876 25.0518 36.076 23.8882C37.2634 22.7246 38.2938 21.5368 39.1644 20.3249C40.0359 19.1137 40.7356 18.014 41.2633 17.0255C41.844 15.9735 42.2398 14.7936 42.4517 13.4864C42.6626 12.1792 42.3197 11.0795 41.4222 10.1863C40.7885 9.38965 39.957 8.92735 38.9275 8.79941C37.897 8.67206 36.8676 8.71974 35.8381 8.94305C34.8086 9.16635 33.8321 9.52484 32.9076 10.0191C31.9841 10.5134 31.3105 10.9516 30.8887 11.3342C29.7263 12.5775 28.7098 13.9644 27.839 15.4949C26.9677 17.0255 26.3737 18.6115 26.057 20.2537C25.7401 21.8953 25.7006 23.4735 25.9381 24.9884C26.1757 26.5026 26.7433 27.9933 27.641 29.4599V29.4599ZM25.265 30.9422C24.3674 28.8383 23.5754 26.7736 22.8889 24.7488C22.2025 22.7246 21.8594 20.6442 21.8594 18.5077C21.8594 16.9458 22.0442 15.2318 22.4138 13.3669C22.7833 11.502 23.4565 9.68418 24.4333 7.91464C25.4101 6.1451 26.7565 4.55903 28.4725 3.15644C30.189 1.75324 32.4719 0.733284 35.3234 0.0953571C35.5872 0.0319869 35.8511 0 36.115 0C36.4848 0 36.9205 0.127344 37.4223 0.382635C37.924 0.637323 38.4517 1.01211 39.0065 1.5064C39.5602 2.00069 40.0489 2.51067 40.4717 3.03694C40.8935 3.56261 41.2103 3.92171 41.4222 4.11303C42.8475 5.73893 43.8899 7.46863 44.5506 9.30154C45.2102 11.1351 45.593 12.9601 45.699 14.7773C45.9099 17.5198 45.659 20.2296 44.9464 22.908C44.2337 25.5859 42.7945 28.2003 40.6296 30.7508C39.891 31.5161 39.1384 32.2892 38.3728 33.0702C37.6072 33.8518 36.6967 34.6086 35.6402 35.3419C35.4293 35.4698 35.0465 35.701 34.4918 36.0353C33.9371 36.3703 33.3694 36.7131 32.7887 37.0637C32.208 37.4144 31.6933 37.7415 31.2445 38.0439C30.7957 38.3468 30.5718 38.5303 30.5718 38.5943L33.8182 48.1589C33.8391 48.2217 35.4423 48.1589 35.4423 48.1589C38.5407 48.1825 41.821 48.4855 44.6695 49.1632C47.4151 49.9285 49.7779 50.9804 51.7578 52.3197C53.7378 53.6589 55.321 55.1653 56.5094 56.8389C57.6978 58.513 58.2915 60.2108 58.2915 61.9326C58.2915 63.6539 57.8687 65.4077 57.0241 67.1929C54.8592 70.5727 51.401 73.0755 46.6495 74.7014C46.1208 74.8927 45.3682 75.1082 44.3917 75.3472C43.4152 75.5862 43.0324 75.961 43.2433 76.4709C44.5106 79.9448 45.3682 82.3348 45.8179 83.6445C46.2667 84.9541 46.5965 86.644 46.8074 88.7141C47.0183 90.6936 46.4506 92.474 45.1043 94.0673C43.758 95.6667 41.9499 96.9643 39.6791 97.9661C37.4093 98.974 35.3364 99.5594 33.4623 99.7405C31.5873 99.9155 30.307 100 29.6213 100C27.245 100 24.9218 99.7284 22.6513 99.1852C19.8529 98.5515 17.5033 97.5799 15.6025 96.2702C13.7017 94.9606 12.7513 93.3673 12.7513 91.4903C12.7513 90.3074 13.3189 89.0943 14.4541 87.851C15.5893 86.6078 17.0809 85.7145 18.9289 85.1774C20.9881 84.5377 22.8493 84.3627 24.5126 84.6463C26.1757 84.936 27.5485 85.4792 28.6309 86.2758C29.7133 87.0725 30.4659 88.0381 30.8887 89.1667C31.3105 90.3013 31.2845 91.3575 30.8087 92.3473C30.334 93.3371 29.3705 94.176 27.9182 94.858C26.4662 95.546 24.4465 95.8538 21.8594 95.7934C22.9153 96.9401 24.3937 97.6644 26.2946 97.9661C28.1954 98.2739 30.1491 98.292 32.155 98.0385C34.162 97.7851 36.049 97.3143 37.8181 96.6263C39.5872 95.9443 40.9734 95.202 41.9759 94.4053C42.6096 93.832 43.0853 93.0836 43.4022 92.1602C43.719 91.2308 43.9039 90.2712 43.9559 89.2633C44.0089 88.2614 43.9559 87.4768 43.798 86.9216C43.6391 86.3603 43.3752 85.4912 43.0054 84.3144C41.4222 80.4578 40.4187 78.0317 39.9959 77.0419C39.7851 76.7262 39.2174 76.6224 38.2938 76.7341C37.3693 76.8457 36.5907 76.9495 35.957 77.0419C31.4164 77.398 27.6146 77.235 24.5522 76.5669C19.8001 75.8016 15.6157 74.4383 11.9989 72.4774C8.38205 70.5172 5.47806 68.1417 3.28679 65.3516C1.09563 62.5621 0 60.4419 0 58.991C0 57.5408 0 56.624 0 56.2414C0 53.6589 0.739216 51.2357 2.21765 48.9719C5.016 45.4328 8.32928 42.181 12.1573 39.2159C15.9853 36.2508 20.3545 33.4927 25.265 30.9422V30.9422Z" fill="#9A36A3"/>
<path d="M79.9711 37.8281C82.5805 37.8281 84.9868 38.2578 87.1899 39.1172C89.4086 39.9609 91.3227 41.1562 92.9321 42.7031C94.5415 44.2344 95.7993 46.0781 96.7055 48.2344C97.6118 50.3906 98.0649 52.7734 98.0649 55.3828C98.0649 56.8672 97.893 58.3281 97.5493 59.7656C97.2055 61.2031 96.6977 62.5625 96.0258 63.8438C95.3696 65.125 94.5571 66.3125 93.5883 67.4062C92.6196 68.4844 91.5102 69.4219 90.2602 70.2188C89.0258 71 87.6586 71.6094 86.1586 72.0469C84.6586 72.5 83.0415 72.7266 81.3071 72.7266C78.6977 72.7266 76.2836 72.3125 74.0649 71.4844C71.8618 70.6406 69.9555 69.4531 68.3461 67.9219C66.7368 66.3906 65.479 64.5547 64.5727 62.4141C63.6665 60.2578 63.2133 57.8672 63.2133 55.2422C63.2133 53.7578 63.3852 52.2969 63.729 50.8594C64.0727 49.4219 64.5727 48.0547 65.229 46.7578C65.9008 45.4609 66.7133 44.2734 67.6665 43.1953C68.6352 42.1016 69.7368 41.1562 70.9711 40.3594C72.2211 39.5625 73.5961 38.9453 75.0961 38.5078C76.6118 38.0547 78.2368 37.8281 79.9711 37.8281ZM81.3071 70.6172C83.0415 70.6172 84.6274 70.3047 86.0649 69.6797C87.5024 69.0547 88.7368 68.1484 89.768 66.9609C90.8149 65.7734 91.6274 64.3281 92.2055 62.625C92.7836 60.9062 93.0727 58.9609 93.0727 56.7891C93.0727 54.3828 92.7915 52.1562 92.229 50.1094C91.6821 48.0469 90.8618 46.2656 89.768 44.7656C88.6743 43.25 87.3071 42.0703 85.6665 41.2266C84.0415 40.3672 82.143 39.9375 79.9711 39.9375C78.2368 39.9375 76.6508 40.25 75.2133 40.875C73.7758 41.4844 72.5336 42.375 71.4868 43.5469C70.4555 44.7188 69.6508 46.1562 69.0727 47.8594C68.4946 49.5625 68.2055 51.5 68.2055 53.6719C68.2055 56.0625 68.479 58.2969 69.0258 60.375C69.5727 62.4375 70.393 64.2266 71.4868 65.7422C72.5805 67.2578 73.9477 68.4531 75.5883 69.3281C77.229 70.1875 79.1352 70.6172 81.3071 70.6172ZM168.424 68.0625C168.424 68.2344 168.401 68.4141 168.354 68.6016C168.323 68.7891 168.237 68.9453 168.096 69.0703C167.393 69.6016 166.627 70.0938 165.799 70.5469C164.987 70.9844 164.104 71.3672 163.151 71.6953C162.198 72.0234 161.166 72.2734 160.057 72.4453C158.963 72.6328 157.784 72.7266 156.518 72.7266C153.674 72.7266 151.081 72.3125 148.737 71.4844C146.393 70.6406 144.377 69.4531 142.69 67.9219C141.018 66.3906 139.721 64.5547 138.799 62.4141C137.877 60.2578 137.416 57.8672 137.416 55.2422C137.416 53.7578 137.604 52.2969 137.979 50.8594C138.37 49.4219 138.932 48.0547 139.666 46.7578C140.401 45.4609 141.307 44.2734 142.385 43.1953C143.463 42.1016 144.69 41.1562 146.065 40.3594C147.456 39.5625 148.979 38.9453 150.635 38.5078C152.307 38.0547 154.112 37.8281 156.049 37.8281C156.799 37.8281 157.565 37.8672 158.346 37.9453C159.127 38.0078 159.901 38.1094 160.666 38.25C161.432 38.375 162.166 38.5312 162.87 38.7188C163.588 38.9062 164.268 39.1172 164.909 39.3516L166.502 43.6875L166.315 43.7812C165.706 43.2344 165.002 42.7266 164.206 42.2578C163.409 41.7891 162.557 41.3828 161.651 41.0391C160.745 40.6953 159.791 40.4297 158.791 40.2422C157.807 40.0391 156.807 39.9375 155.791 39.9375C153.823 39.9375 152.018 40.25 150.377 40.875C148.737 41.4844 147.323 42.375 146.135 43.5469C144.963 44.7188 144.049 46.1562 143.393 47.8594C142.737 49.5625 142.409 51.5 142.409 53.6719C142.409 56.0625 142.721 58.2812 143.346 60.3281C143.971 62.375 144.901 64.1484 146.135 65.6484C147.37 67.1484 148.909 68.3281 150.752 69.1875C152.612 70.0312 154.776 70.4531 157.245 70.4531C158.338 70.4531 159.315 70.3672 160.174 70.1953C161.034 70.0234 161.76 69.8125 162.354 69.5625C162.948 69.2969 163.393 69.0156 163.69 68.7188C164.002 68.4062 164.159 68.125 164.159 67.875V66.9609C164.159 65.8672 164.143 64.9219 164.112 64.125C164.081 63.3281 164.034 62.6406 163.971 62.0625C163.909 61.4688 163.838 60.9609 163.76 60.5391C163.682 60.1172 163.588 59.7266 163.479 59.3672V59.2734H169.104V59.3672C169.01 59.6953 168.916 60.0859 168.823 60.5391C168.745 60.9766 168.674 61.5 168.612 62.1094C168.549 62.7188 168.502 63.4375 168.471 64.2656C168.44 65.0781 168.424 66.0234 168.424 67.1016V68.0625Z" fill="white"/>
<path d="M104.674 38.3906L128.815 64.0781V47.5781C128.815 46.25 128.799 45.0938 128.768 44.1094C128.737 43.1094 128.69 42.25 128.627 41.5312C128.565 40.7969 128.487 40.1875 128.393 39.7031C128.315 39.2188 128.229 38.8125 128.135 38.4844V38.3906H132.307V38.4844C132.213 38.8125 132.127 39.2188 132.049 39.7031C131.971 40.1875 131.901 40.7969 131.838 41.5312C131.776 42.25 131.729 43.1094 131.698 44.1094C131.666 45.0938 131.651 46.25 131.651 47.5781V72.4688H130.831L106.69 46.8047V62.8359C106.69 64.1641 106.706 65.3281 106.737 66.3281C106.768 67.3125 106.815 68.1641 106.877 68.8828C106.94 69.6016 107.01 70.2031 107.088 70.6875C107.166 71.1719 107.252 71.5781 107.346 71.9062V72H103.174V71.9062C103.268 71.5781 103.354 71.1719 103.432 70.6875C103.526 70.2031 103.604 69.6016 103.666 68.8828C103.729 68.1641 103.776 67.3125 103.807 66.3281C103.838 65.3281 103.854 64.1641 103.854 62.8359V47.5781C103.854 46.25 103.838 45.0938 103.807 44.1094C103.776 43.1094 103.729 42.25 103.666 41.5312C103.604 40.7969 103.526 40.1875 103.432 39.7031C103.354 39.2188 103.268 38.8125 103.174 38.4844V38.3906H104.674Z" fill="#9A36A3"/>
</svg>
